<svg width="51" height="18" viewBox="0 0 51 18" fill="none" xmlns="http://www.w3.org/2000/svg">
<path d="M50.2862 0.250122L13.707 15.8251C10.6737 17.1098 8.12649 17.7522 6.06538 17.7522C3.73205 17.7522 2.03969 16.9348 0.988298 15.3001C0.328576 14.2501 0.134132 12.9182 0.404965 11.3043C0.677187 9.6904 1.39663 7.96957 2.5633 6.14179C3.53552 4.66262 5.13066 2.71818 7.34871 0.308455C6.59539 1.49278 6.04348 2.79373 5.71538 4.15845C5.13205 6.64734 5.65705 8.47512 7.29038 9.64179C8.06816 10.1862 9.1376 10.4585 10.4987 10.4585C11.5862 10.4585 12.8112 10.2835 14.1737 9.93345L50.2862 0.250122Z" fill="black"/>
</svg>
