<svg width="51" height="50" viewBox="0 0 51 50" fill="none" xmlns="http://www.w3.org/2000/svg">
<g clip-path="url(#clip0_174_216)">
<path d="M50.106 6.26656C49.2372 5.15614 47.7185 6.04572 47.0497 6.43322C42.2914 9.23739 41.5893 14.1749 39.931 17.0103C38.6268 19.2811 36.4893 20.9478 34.556 21.077C33.1268 21.1791 31.5768 20.902 30.0393 20.2332C26.2747 18.6061 24.2476 16.4999 23.7539 16.1291C22.7393 15.3582 14.9414 7.76447 8.58722 7.45406C8.58722 7.45406 7.81222 5.89156 7.61847 5.86447C7.15597 5.81239 6.68097 6.80406 6.33513 6.90822C6.02263 7.01864 5.47472 5.84156 5.15805 5.89364C4.8393 5.93531 4.52888 7.11447 3.90805 7.72072C3.44972 8.16447 2.89555 8.13739 2.58097 8.68531C2.47263 8.88531 2.51013 9.23739 2.38722 9.56031C2.12263 10.227 1.2393 10.2978 1.23097 11.0124C1.23097 11.8061 1.97472 11.9582 2.62472 12.5124C3.14138 12.9541 3.1768 13.2666 3.77888 13.4728C4.31638 13.6561 5.09555 13.0832 5.78722 13.2895C6.3643 13.4582 6.91847 13.5811 7.04138 14.1707C7.15388 14.7041 7.04138 15.5416 6.33305 15.4478C6.09972 15.4166 5.08722 15.0853 3.83722 15.2186C2.3268 15.3791 0.601799 15.8624 0.433049 17.5311C0.347632 18.4624 1.50388 19.552 2.63097 19.3353C3.40388 19.1874 3.0393 18.2811 3.46222 17.8436C4.01847 17.2811 7.15388 19.8103 10.0705 19.8103C11.306 19.8103 12.2185 19.4978 13.1268 18.5499C13.2101 18.4895 13.3205 18.3374 13.4497 18.3207C13.595 18.357 13.7326 18.4191 13.856 18.5041C16.2122 20.3728 17.9893 24.1291 26.6268 24.1728C27.8393 24.1874 29.231 24.7541 30.3685 25.7916C31.3685 26.6936 31.9601 28.1353 32.5289 29.5936C33.3997 31.7874 34.9476 33.9041 37.3039 36.2666C37.4289 36.4082 39.3664 37.8916 39.5122 38.002C39.5372 38.0228 39.6872 38.3499 39.6226 38.5332C39.581 39.9707 39.3664 44.0957 42.4664 44.2686C43.2289 44.3103 43.0393 43.7874 43.0393 43.4145C43.0289 42.7041 42.9039 41.9874 43.2747 41.2478C43.8018 40.252 42.1789 39.7707 42.2143 37.5895C42.2539 35.9561 40.8705 36.2332 40.1643 34.9853C39.7685 34.2707 39.3976 33.877 39.4351 33.0145C39.5872 28.0561 38.358 24.7895 37.758 23.9999C37.2851 23.3874 36.8768 23.1603 37.3268 22.8749C39.9101 21.177 40.5039 19.5957 40.5039 19.5957C41.8789 16.3853 43.1205 13.4603 44.8268 12.1582C45.1726 11.9082 46.0539 11.2416 46.6018 10.9916C48.1914 10.2374 49.0455 9.78739 49.4935 9.34989C50.2351 8.64781 50.8164 7.15614 50.106 6.26656Z" fill="black"/>
</g>
<defs>
<clipPath id="clip0_174_216">
<rect width="50" height="50" fill="white" transform="translate(0.428589)"/>
</clipPath>
</defs>
</svg>
